<?xml version="1.0" encoding="utf-8"?>
<!-- Generator: Adobe Illustrator 19.1.0, SVG Export Plug-In . SVG Version: 6.00 Build 0)  -->
<svg version="1.1" id="Layer_1" xmlns="http://www.w3.org/2000/svg" xmlns:xlink="http://www.w3.org/1999/xlink" x="0px" y="0px"
	 width="366px" height="264px" viewBox="0 0 366 264" style="enable-background:new 0 0 366 264;" xml:space="preserve">
<style type="text/css">
	.st0{fill:none;}
	.st1{fill:#E07D10;}
	.st2{fill:none;stroke:#ED5FA6;stroke-width:7;stroke-linecap:round;stroke-linejoin:round;stroke-miterlimit:10;}
	.st3{fill:none;stroke:#AA87FF;stroke-width:7;stroke-linecap:round;stroke-linejoin:round;stroke-miterlimit:10;}
	.st4{fill:none;stroke:#FF9C39;stroke-width:7;stroke-linecap:round;stroke-linejoin:round;stroke-miterlimit:10;}
	.st5{fill:#8AF281;stroke:#8AF281;stroke-linecap:round;stroke-linejoin:round;stroke-miterlimit:10;}
	.st6{fill:#FF9C39;stroke:#E07D10;stroke-linecap:round;stroke-linejoin:round;stroke-miterlimit:10;}
	.st7{fill:none;stroke:#8AF281;stroke-width:7;stroke-linecap:round;stroke-linejoin:round;stroke-miterlimit:10;}
	.st8{fill:#ED5FA6;stroke:#ED5FA6;stroke-width:7;stroke-linecap:round;stroke-linejoin:round;stroke-miterlimit:10;}
	.st9{fill:none;stroke:#1FAB54;stroke-width:7;stroke-linecap:round;stroke-linejoin:round;stroke-miterlimit:10;}
	.st10{fill:none;stroke:#1FAB54;stroke-width:6;stroke-linecap:round;stroke-linejoin:round;stroke-miterlimit:10;}
	.st11{fill:#FF9C39;stroke:#FF9C39;stroke-width:5;stroke-linecap:round;stroke-miterlimit:10;}
	.st12{fill:none;stroke:#1FAB54;stroke-width:4;stroke-miterlimit:10;}
	.st13{fill:none;stroke:#3C91E5;stroke-width:4;stroke-miterlimit:10;}
	.st14{fill:#FFFFFF;}
	.st15{fill:none;stroke:#11ACCD;stroke-width:5;stroke-linecap:round;stroke-miterlimit:10;}
	.st16{fill:#11ACCD;}
	.st17{fill:none;stroke:#FF9C39;stroke-width:4;stroke-miterlimit:10;}
	.st18{fill:none;stroke:#63D9EA;stroke-width:7;stroke-linecap:round;stroke-miterlimit:10;}
	.st19{fill:none;stroke:#63D9EA;stroke-width:8;stroke-linecap:round;stroke-miterlimit:10;}
	.st20{fill:none;stroke:#000000;stroke-linecap:round;stroke-linejoin:round;stroke-miterlimit:10;}
	.st21{fill:none;stroke:#000000;stroke-width:1.5;stroke-linecap:round;stroke-linejoin:round;stroke-miterlimit:10;}
	.st22{fill:none;stroke:#000000;stroke-linecap:round;stroke-miterlimit:10;}
	.st23{fill:none;stroke:#000000;stroke-width:1.5;stroke-linecap:round;stroke-miterlimit:10;}
	.st24{fill:none;stroke:#000000;stroke-width:2;stroke-linecap:round;stroke-linejoin:round;stroke-miterlimit:10;}
	.st25{fill:none;stroke:#000000;stroke-width:1.5;stroke-miterlimit:10;}
	.st26{fill:none;stroke:#000000;stroke-miterlimit:10;}
	.st27{fill:none;stroke:#000000;stroke-width:2;stroke-miterlimit:10;}
	.st28{fill:none;stroke:#000000;stroke-width:2;stroke-linecap:round;stroke-miterlimit:10;}
	.st29{fill:none;stroke:#000000;stroke-linecap:round;stroke-linejoin:round;}
	.st30{stroke:#000000;stroke-linecap:round;stroke-linejoin:round;stroke-miterlimit:10;}
	.st31{fill:none;stroke:#000000;stroke-width:1.5;stroke-linejoin:round;stroke-miterlimit:10;}
	.st32{fill:none;stroke:#000000;stroke-linejoin:round;stroke-miterlimit:10;}
	.st33{clip-path:url(#SVGID_2_);fill:none;stroke:#000000;stroke-linejoin:round;stroke-miterlimit:10;}
	.st34{clip-path:url(#SVGID_2_);fill:none;stroke:#ADADEB;stroke-linejoin:round;stroke-miterlimit:10;}
	.st35{clip-path:url(#SVGID_2_);}
	.st36{stroke:#000000;stroke-linejoin:round;stroke-miterlimit:10;}
	.st37{stroke:#000000;stroke-width:3;stroke-linejoin:round;stroke-miterlimit:10;}
	.st38{fill:none;stroke:#E84D39;stroke-width:3;stroke-linecap:round;stroke-linejoin:round;}
	.st39{fill:#E84D39;}
	.st40{fill:none;stroke:#11ACCD;stroke-width:2;stroke-linecap:round;stroke-linejoin:round;}
	.st41{fill:none;stroke:#F9685D;stroke-width:2;stroke-linecap:round;stroke-linejoin:round;}
	.st42{fill:#F9685D;}
	.st43{fill:#11ACCD;stroke:#000000;stroke-linecap:round;stroke-miterlimit:10;}
	.st44{stroke:#000000;stroke-linecap:round;stroke-miterlimit:10;}
	.st45{fill:#FFFF00;stroke:#000000;stroke-linecap:round;stroke-miterlimit:10;}
	.st46{fill:#F9685D;stroke:#000000;stroke-linecap:round;stroke-miterlimit:10;}
	.st47{fill:#D6D8DA;stroke:#000000;stroke-linecap:round;stroke-miterlimit:10;}
	.st48{fill:none;stroke:#FF9C39;stroke-width:5;stroke-linecap:round;stroke-linejoin:round;stroke-miterlimit:10;}
	.st49{fill:#FF9C39;}
	.st50{fill:#AA87FF;}
	.st51{fill:#ED5FA6;}
	.st52{fill:#1FAB54;}
	.st53{fill:none;stroke:#000000;stroke-width:4;stroke-linecap:round;stroke-linejoin:round;stroke-miterlimit:10;}
	.st54{stroke:#000000;stroke-miterlimit:10;}
	.st55{stroke:#000000;stroke-width:2;stroke-linecap:round;stroke-linejoin:round;stroke-miterlimit:10;}
	.st56{fill:none;stroke:#000000;stroke-width:3;stroke-linecap:round;stroke-linejoin:round;stroke-miterlimit:10;}
	.st57{fill:none;stroke:#000000;stroke-linejoin:round;}
	.st58{fill:none;stroke:#000000;stroke-width:7;stroke-linecap:round;stroke-linejoin:round;stroke-miterlimit:10;}
	.st59{fill:none;stroke:#11ACCD;stroke-width:3;stroke-linecap:round;stroke-linejoin:round;}
	.st60{fill:none;stroke:#11ACCD;stroke-width:2;stroke-linecap:round;stroke-miterlimit:10;}
	.st61{fill:none;stroke:#E07D10;stroke-width:2;stroke-linecap:round;stroke-miterlimit:10;}
	.st62{font-family:'KaTeX_Main-Regular';}
	.st63{font-size:24px;}
	.st64{font-family:'KaTeX_Main-Italic';}
	.st65{font-size:18px;}
	.st66{fill:none;stroke:#11ACCD;stroke-width:2;stroke-miterlimit:10;}
	.st67{font-family:'Verdana';}
	.st68{letter-spacing:1;}
	.st69{fill:none;stroke:#000000;stroke-width:3;stroke-linecap:square;stroke-miterlimit:10;}
	.st70{fill:#BE2612;}
	.st71{fill:none;stroke:#BE2612;stroke-width:2;stroke-linecap:round;stroke-linejoin:round;}
	.st72{fill:none;stroke:#21242C;stroke-linecap:round;stroke-linejoin:round;stroke-miterlimit:10;}
	.st73{fill:none;stroke:#11ACCD;stroke-width:3;stroke-linecap:round;stroke-miterlimit:10;}
	.st74{fill:#FFFFFF;stroke:#000000;stroke-miterlimit:10;}
</style>
<text transform="matrix(1 0 0 1 139.5159 239.9997)" class="st1 st62 st63">+</text>
<text transform="matrix(1 0 0 1 158.1877 239.9997)" class="st1 st64 st63">     </text>
<text transform="matrix(1 0 0 1 188.1877 239.9997)" class="st1 st62 st63"> </text>
<text transform="matrix(0.583 0 0 0.583 194.1877 247.9919)" class="st1 st62 st63">  </text>
<text transform="matrix(0.583 0 0 0.583 201.1838 247.9919)" class="st1 st64 st63">   </text>
<text transform="matrix(1 0 0 1 211.678 239.9997)" class="st1 st62 st63">−</text>
<g>
	<circle class="st27" cx="94.9" cy="137.8" r="18"/>
	<polyline class="st22" points="100.9,65.8 94.9,65.8 94.9,95.8 94.9,119.8 	"/>
	<polyline class="st20" points="136.9,203.8 94.9,203.8 94.9,179.8 94.9,155.8 	"/>
	<line class="st25" x1="94.9" y1="124.3" x2="94.9" y2="136.3"/>
	<line class="st25" x1="88.9" y1="130.3" x2="100.9" y2="130.3"/>
	<line class="st25" x1="88.9" y1="148.3" x2="100.9" y2="148.3"/>
</g>
<g>
	<circle cx="94.9" cy="203.8" r="3"/>
	<rect x="88.9" y="197.8" class="st0" width="12" height="12"/>
</g>
<g>
	<g>
		<path class="st61" d="M70.9,173.8c-3.7-7-6.2-20.5-6.2-36c0-11.4,1.4-21.8,3.6-29.3"/>
		<g>
			<path class="st1" d="M70.9,101.8c0,3.6,0.5,8.4,1.7,11.6l-4.6-3.9l-6.1-0.1C65,107.8,68.5,104.6,70.9,101.8z"/>
		</g>
	</g>
</g>
<g>
	<g>
		<path class="st61" d="M304.9,173.8c3.7-7,6.2-20.5,6.2-36c0-11.4-1.4-21.8-3.6-29.3"/>
		<g>
			<path class="st1" d="M304.9,101.8c2.4,2.7,5.9,5.9,9,7.6l-6.1,0.1l-4.6,3.9C304.4,110.2,305,105.4,304.9,101.8z"/>
		</g>
	</g>
</g>
<g>
	<g>
		<path class="st61" d="M172.9,47.8c-6.4-3.7-18.8-6.2-33-6.2c-10.2,0-19.5,1.3-26.3,3.4"/>
		<g>
			<path class="st1" d="M106.9,47.8c2.7-2.4,5.8-6,7.4-9.1l0.2,6.1l4,4.5C115.3,48.1,110.6,47.7,106.9,47.8z"/>
		</g>
	</g>
</g>
<g>
	<g>
		<path class="st61" d="M226.9,221.8c-7,3.7-20.5,6.2-36,6.2c-11.4,0-21.8-1.4-29.3-3.6"/>
		<g>
			<path class="st1" d="M154.9,221.8c3.6,0,8.4-0.5,11.6-1.7l-3.9,4.6l-0.1,6.1C160.9,227.7,157.7,224.2,154.9,221.8z"/>
		</g>
	</g>
</g>
<g>
	<line class="st20" x1="166.3" y1="65.8" x2="184.9" y2="65.8"/>
	<polyline class="st24" points="119.5,65.8 123.4,56.8 131.2,74.8 139,56.8 146.8,74.8 154.6,56.8 162.4,74.8 166.3,65.8 	"/>
	<line class="st20" x1="100.9" y1="65.8" x2="119.5" y2="65.8"/>
	<rect x="100.9" y="53.8" class="st0" width="84" height="24"/>
</g>
<g>
	<line class="st20" x1="262.3" y1="65.8" x2="280.9" y2="65.8"/>
	<polyline class="st24" points="215.5,65.8 219.4,56.8 227.2,74.8 235,56.8 242.8,74.8 250.6,56.8 258.4,74.8 262.3,65.8 	"/>
	<line class="st20" x1="196.9" y1="65.8" x2="215.5" y2="65.8"/>
	<rect x="196.9" y="53.8" class="st0" width="84" height="24"/>
</g>
<g>
	<line class="st20" x1="213.7" y1="203.8" x2="232.3" y2="203.8"/>
	<polyline class="st24" points="166.9,203.8 170.8,194.8 178.6,212.8 186.4,194.8 194.2,212.8 202,194.8 209.8,212.8 213.7,203.8 	
		"/>
	<line class="st20" x1="136.9" y1="203.8" x2="166.9" y2="203.8"/>
	<rect x="136.9" y="191.8" class="st0" width="95.4" height="24"/>
</g>
<g>
	<line class="st20" x1="286.9" y1="114.4" x2="286.9" y2="95.8"/>
	<polyline class="st24" points="286.9,161.2 277.9,157.3 295.9,149.5 277.9,141.7 295.9,133.9 277.9,126.1 295.9,118.3 286.9,114.4 
			"/>
	<line class="st20" x1="286.9" y1="179.8" x2="286.9" y2="161.2"/>
	<rect x="274.9" y="95.8" class="st0" width="24" height="84"/>
</g>
<line class="st22" x1="184.9" y1="65.8" x2="196.9" y2="65.8"/>
<polyline class="st22" points="280.9,65.8 286.9,65.8 286.9,95.8 "/>
<polyline class="st22" points="286.9,179.8 286.9,203.8 232.3,203.8 "/>
<g>
	<polyline class="st20" points="94.9,215.8 102.4,215.8 102.4,215.8 102.4,215.8 94.9,227.8 87.4,215.8 94.9,215.8 94.9,203.8 	"/>
	<rect x="82.9" y="203.8" class="st0" width="24" height="24"/>
</g>
<text transform="matrix(1 0 0 1 167.7483 251.9997)" class="st1 st62 st65">−1V</text>
<text transform="matrix(1 0 0 1 31.5968 113.8112)" class="st1 st62 st63">+</text>
<text transform="matrix(0.583 0 0 0.583 40.9327 150.6032)" class="st1 st64 st63">   </text>
<text transform="matrix(1 0 0 1 31.5968 171.4108)" class="st1 st62 st63">−</text>
<text transform="matrix(1 0 0 1 20.2501 144.0002)" class="st1 st62 st65">15V</text>
<g>
	<text transform="matrix(1 0 0 1 325.597 113.8112)" class="st1 st62 st63">+</text>
	<text transform="matrix(0.583 0 0 0.583 334.933 150.6032)" class="st1 st64 st63">   </text>
	<text transform="matrix(1 0 0 1 325.597 171.4108)" class="st1 st62 st63">−</text>
	<text transform="matrix(1 0 0 1 320.766 137.8112)" class="st1 st64 st63">v</text>
	<text transform="matrix(0.583 0 0 0.583 331.806 145.8034)" class="st1 st62 st63">R3</text>
</g>
<text transform="matrix(1 0 0 1 94.3323 36.0001)" class="st1 st62 st63">+</text>
<text transform="matrix(1 0 0 1 113.0042 36.0001)" class="st1 st64 st63">      </text>
<text transform="matrix(0.583 0 0 0.583 149.0042 43.9923)" class="st1 st64 st63">    </text>
<text transform="matrix(1 0 0 1 162.9963 36.0001)" class="st1 st62 st63">−</text>
<g>
	<g>
		<path class="st61" d="M270,48c-6.4-3.7-18.8-6.2-33-6.2c-10.2,0-19.5,1.3-26.3,3.4"/>
		<g>
			<path class="st1" d="M204,48c2.7-2.4,5.8-6,7.4-9.1l0.2,6.1l4,4.5C212.4,48.3,207.6,47.9,204,48z"/>
		</g>
	</g>
</g>
<text transform="matrix(1 0 0 1 191.4013 35.9999)" class="st1 st62 st63">+</text>
<text transform="matrix(1 0 0 1 210.0732 35.9999)" class="st1 st64 st63">      </text>
<text transform="matrix(0.583 0 0 0.583 246.0732 43.9921)" class="st1 st64 st63">    </text>
<text transform="matrix(1 0 0 1 260.0654 35.9999)" class="st1 st62 st63">−</text>
<text transform="matrix(1 0 0 1 131.6827 30.0001)" class="st1 st62 st65">5V</text>
<text transform="matrix(1 0 0 1 227.6829 30.0001)" class="st1 st62 st65">3V</text>
<text transform="matrix(1 0 0 1 132 96)" class="st67 st65 st68">R1</text>
<text transform="matrix(1 0 0 1 228 96)" class="st67 st65 st68">R2</text>
<text transform="matrix(1 0 0 1 246 144)" class="st67 st65 st68">R3</text>
<text transform="matrix(1 0 0 1 180 186)" class="st67 st65 st68">R4</text>
<text transform="matrix(1 0 0 1 120 144)" class="st67 st65 st68">V</text>
<text transform="matrix(0.583 0 0 0.583 133.6548 149.9941)" class="st67 st65">in</text>
<text transform="matrix(1 0 0 1 78 204)" class="st52 st62 st65 st68">a</text>
<text transform="matrix(1 0 0 1 78 78)" class="st52 st62 st65 st68">b</text>
<text transform="matrix(1 0 0 1 186 60)" class="st52 st62 st65 st68">c</text>
<text transform="matrix(1 0 0 1 294 78)" class="st52 st62 st65 st68">d</text>
<text transform="matrix(1 0 0 1 294 204)" class="st52 st62 st65 st68">e</text>
</svg>
